<svg xmlns="http://www.w3.org/2000/svg" x="0px" y="0px" viewBox="0 0 327 72">
  <g>
    <rect fill="#999" width="327" height="72"/>
    <g fill="#fff">
      <path d="M51,53.5c-5.2,0-8.9-1.2-12.2-4.5l3.5-3.4c2.5,2.5,5.3,3.2,8.8,3.2c4.5,0,7.1-1.9,7.1-5.2
        c0-1.5-0.4-2.7-1.4-3.5c-0.9-0.8-1.7-1.1-3.8-1.4L49,38.1c-2.8-0.4-5-1.3-6.5-2.7c-1.7-1.6-2.5-3.7-2.5-6.5c0-5.9,4.4-10,11.5-10
        c4.6,0,7.8,1.1,10.7,3.9l-3.3,3.2c-2.1-2-4.6-2.6-7.5-2.6c-4.1,0-6.3,2.3-6.3,5.3c0,1.2,0.4,2.3,1.3,3.1c0.9,0.8,2.3,1.3,3.9,1.6
        l3.9,0.6c3.2,0.5,5,1.2,6.4,2.5c1.9,1.6,2.8,4.1,2.8,7C63.4,49.8,58.2,53.5,51,53.5z"/>
      <path d="M81,53.5c-3.6,0-6.7-1.3-9.1-3.6c-3.4-3.3-3.3-7.1-3.3-13.6s0-10.3,3.3-13.6c2.4-2.3,5.5-3.6,9.1-3.6
        c6.3,0,11.1,3.7,12.3,10.5H88c-0.8-3.4-3.2-5.8-7-5.8c-2,0-3.9,0.8-5.1,2.1c-1.7,1.8-2.1,3.8-2.1,10.6s0.4,8.8,2.1,10.6
        c1.2,1.3,3.1,2.1,5.1,2.1c3.8,0,6.2-2.4,7-5.8h5.3C92.1,49.8,87.2,53.5,81,53.5z"/>
      <path d="M118.4,53.2V38.4h-14v14.8h-5.2v-34h5.2v14.5h14V19.2h5.2v34H118.4z"/>
      <path d="M152,49.9c-2.4,2.3-5.4,3.6-9.1,3.6c-3.7,0-6.7-1.3-9.1-3.6c-3.4-3.3-3.3-7.1-3.3-13.6s0-10.3,3.3-13.6
        c2.4-2.3,5.4-3.6,9.1-3.6c3.7,0,6.7,1.3,9.1,3.6c3.4,3.3,3.3,7.1,3.3,13.6S155.4,46.5,152,49.9z M148,25.7
        c-1.2-1.3-3.1-2.1-5.1-2.1s-3.9,0.8-5.1,2.1c-1.7,1.8-2,3.7-2,10.5s0.3,8.7,2,10.5c1.2,1.3,3.1,2.1,5.1,2.1s3.9-0.8,5.1-2.1
        c1.7-1.8,2-3.7,2-10.5S149.7,27.5,148,25.7z"/>
      <path d="M162.1,53.2v-34h5.2v29.3h16.6v4.6H162.1z"/>
      <path d="M211.3,53.2l-2.4-6.8h-13.6l-2.4,6.8h-5.6l12.6-34h4.2l12.6,34H211.3z M202.2,26.9L196.9,42h10.6
        L202.2,26.9z"/>
      <path d="M241.3,53.2L234,38.9h-6.5v14.3h-5.2v-34h13.4c6.5,0,10.7,4.2,10.7,9.9c0,4.9-3,8-6.9,9l7.9,15H241.3z
         M235.2,23.9h-7.8v10.6h7.8c3.5,0,5.9-2,5.9-5.3S238.7,23.9,235.2,23.9z"/>
      <path d="M17.5,35.9l9.9-16.7h5.2l-9.9,16.7L33,53.2h-5.7L20.1,41L17.5,35.9z"/>
      <polygon points="297.6,27.4 302.3,19.2 308,19.2 300.4,32.1"/>
      <polygon points="297.9,36.6 297.8,36.7 287.9,53.2 282.6,53.2 292.5,36.5 282.2,19.2 287.9,19.2 295.1,31.6"/>
      <path d="M255.6,53.2v-34h5.2v29.3h16.6v4.6H255.6z"/>
    </g>
  </g>
</svg>
